<svg width="30" height="29" viewBox="0 0 30 29" fill="none" xmlns="http://www.w3.org/2000/svg">
<path d="M14.7106 28.9942C22.8351 28.9942 29.4213 22.5037 29.4213 14.4971C29.4213 6.49058 22.8351 0 14.7106 0C6.58617 0 0 6.49058 0 14.4971C0 22.5037 6.58617 28.9942 14.7106 28.9942Z" fill="white"/>
<path d="M9.34533 17.7341C9.43884 17.6419 9.57327 17.5843 9.71353 17.5843H22.402C22.6357 17.5843 22.7526 17.8608 22.5831 18.0221L20.0758 20.493C19.9823 20.5851 19.8479 20.6427 19.7076 20.6427H7.02506C6.79128 20.6427 6.67439 20.3662 6.84388 20.205L9.35117 17.7341H9.34533Z" fill="black"/>
<path d="M9.34533 8.50705C9.44469 8.4149 9.57911 8.3573 9.71353 8.3573H22.402C22.6357 8.3573 22.7526 8.63376 22.5831 8.79504L20.0758 11.2659C19.9823 11.3581 19.8479 11.4157 19.7076 11.4157H7.02506C6.79128 11.4157 6.67439 11.1392 6.84388 10.978L9.35117 8.50705H9.34533Z" fill="black"/>
<path d="M20.0817 13.0918C19.9882 12.9996 19.8538 12.942 19.7135 12.942H7.02506C6.79128 12.942 6.67439 13.2185 6.84388 13.3798L9.35117 15.8507C9.44469 15.9428 9.57911 16.0004 9.71938 16.0004H22.4078C22.6416 16.0004 22.7585 15.7239 22.589 15.5627L20.0817 13.0918Z" fill="black"/>
</svg>
