<svg width="30" height="29" viewBox="0 0 30 29" fill="none" xmlns="http://www.w3.org/2000/svg">
<path d="M14.7106 28.9942C22.8351 28.9942 29.4213 22.5037 29.4213 14.4971C29.4213 6.49058 22.8351 0 14.7106 0C6.58617 0 0 6.49058 0 14.4971C0 22.5037 6.58617 28.9942 14.7106 28.9942Z" fill="black"/>
<path d="M9.34539 17.7341C9.4389 17.6419 9.57333 17.5843 9.7136 17.5843H22.402C22.6358 17.5843 22.7527 17.8608 22.5832 18.0221L20.0759 20.493C19.9824 20.5851 19.848 20.6427 19.7077 20.6427H7.02512C6.79134 20.6427 6.67445 20.3662 6.84394 20.205L9.35124 17.7341H9.34539Z" fill="white"/>
<path d="M9.34539 8.50705C9.44475 8.4149 9.57917 8.3573 9.7136 8.3573H22.402C22.6358 8.3573 22.7527 8.63376 22.5832 8.79504L20.0759 11.2659C19.9824 11.3581 19.848 11.4157 19.7077 11.4157H7.02512C6.79134 11.4157 6.67445 11.1392 6.84394 10.978L9.35124 8.50705H9.34539Z" fill="white"/>
<path d="M20.0818 13.0918C19.9882 12.9996 19.8538 12.942 19.7135 12.942H7.02512C6.79134 12.942 6.67445 13.2185 6.84394 13.3798L9.35124 15.8507C9.44475 15.9428 9.57917 16.0004 9.71944 16.0004H22.4079C22.6416 16.0004 22.7585 15.7239 22.589 15.5627L20.0818 13.0918V13.0918Z" fill="white"/>
</svg>
