<svg width="6" height="6" viewBox="0 0 6 6" fill="none" xmlns="http://www.w3.org/2000/svg">
<circle cx="3" cy="3" r="3" fill="#C4C4C4"/>
<path d="M3.00514 0.887321C3.12028 0.887321 3.21815 0.92767 3.29875 1.00837C3.38127 1.08719 3.42253 1.1829 3.42253 1.2955C3.42253 1.4081 3.38127 1.50475 3.29875 1.58544C3.21815 1.66426 3.12028 1.70367 3.00514 1.70367C2.88999 1.70367 2.79116 1.66426 2.70864 1.58544C2.62804 1.50475 2.58774 1.4081 2.58774 1.2955C2.58774 1.1829 2.62804 1.08719 2.70864 1.00837C2.79116 0.92767 2.88999 0.887321 3.00514 0.887321ZM2.6338 5.07042V2.63262H2.23943V2.05555H3.36208V5.07042H2.6338Z" fill="#333333"/>
</svg>
